<!-- icon666.com - MILLIONS vector ICONS FREE --><svg viewBox="0 0 128 128" xmlns="http://www.w3.org/2000/svg"><path d="m97 26.562h-66a12.035 12.035 0 0 0 -12 12v40.371a12.035 12.035 0 0 0 12 12h.287v10.474a2.685 2.685 0 0 0 4.584 1.9l8.985-8.986a11.566 11.566 0 0 1 8.179-3.387h43.965a12.035 12.035 0 0 0 12-12v-40.372a12.035 12.035 0 0 0 -12-12z" fill="#fecd1a"></path><g fill="#3a1e08"><path d="m97 24.98h-33a1.75 1.75 0 0 0 0 3.5h33a10.261 10.261 0 0 1 10.25 10.25v40.37a10.261 10.261 0 0 1 -10.25 10.25h-43.97a13.354 13.354 0 0 0 -9.407 3.9l-8.99 8.989a.934.934 0 0 1 -1.593-.662v-10.477a1.749 1.749 0 0 0 -1.75-1.75h-.29a10.261 10.261 0 0 1 -10.25-10.25v-40.37a10.261 10.261 0 0 1 10.25-10.25h9.8a1.75 1.75 0 0 0 0-3.5h-9.8a13.765 13.765 0 0 0 -13.75 13.75v40.37a13.769 13.769 0 0 0 12.29 13.672v8.808a4.431 4.431 0 0 0 7.567 3.138l8.993-8.993a9.833 9.833 0 0 1 6.93-2.875h43.97a13.765 13.765 0 0 0 13.75-13.75v-40.37a13.765 13.765 0 0 0 -13.75-13.75z"></path><path d="m49.91 28.48h4.97a1.75 1.75 0 0 0 0-3.5h-4.97a1.75 1.75 0 0 0 0 3.5z"></path><path d="m87.994 42.2h-47.988a1.75 1.75 0 0 0 0 3.5h47.988a1.75 1.75 0 0 0 0-3.5z"></path><path d="m87.994 56.7h-47.988a1.75 1.75 0 0 0 0 3.5h47.988a1.75 1.75 0 0 0 0-3.5z"></path><path d="m87.994 71.2h-47.988a1.75 1.75 0 0 0 0 3.5h47.988a1.75 1.75 0 0 0 0-3.5z"></path></g></svg>