<!-- icon666.com - MILLIONS vector ICONS FREE --><svg enable-background="new 0 0 24 24" viewBox="0 0 24 24" xmlns="http://www.w3.org/2000/svg"><g id="line" display="none"><g fill="none" stroke="#000" stroke-linecap="round" stroke-linejoin="round" stroke-miterlimit="10"><circle cx="5" cy="13" display="inline" r="1.5"></circle><circle cx="11" cy="13" display="inline" r="1.5"></circle><circle cx="17" cy="13" display="inline" r="1.5"></circle><path d="m7.5 19.5v4l5.6-4h6.4c1.1 0 2-.9 2-2v-9c0-1.1-.9-2-2-2h-17c-1.1 0-2 .9-2 2v9c0 1.1.9 2 2 2z" display="inline"></path><path d="m21.5 17.5c1.1 0 2-.9 2-2v-9c0-1.1-.9-2-2-2h-5v-4l-5.6 4h-6.4c-1.1 0-2 .9-2 2" display="inline"></path></g><circle cx="7.5" cy="8.5" display="inline" r=".5"></circle><path d="m5.5 8.5h-2c-.6 0-1 .4-1 1v1" style="display:inline;fill:none;stroke:#000;stroke-linecap:round;stroke-linejoin:round;stroke-miterlimit:10"></path></g><g id="line_expanded" display="none"><g display="inline"><path d="m5 11c-1.1 0-2 .9-2 2s.9 2 2 2 2-.9 2-2-.9-2-2-2zm0 3c-.6 0-1-.4-1-1s.4-1 1-1 1 .4 1 1-.4 1-1 1z"></path><path d="m11 11c-1.1 0-2 .9-2 2s.9 2 2 2 2-.9 2-2-.9-2-2-2zm0 3c-.6 0-1-.4-1-1s.4-1 1-1 1 .4 1 1-.4 1-1 1z"></path><path d="m17 11c-1.1 0-2 .9-2 2s.9 2 2 2 2-.9 2-2-.9-2-2-2zm0 3c-.6 0-1-.4-1-1s.4-1 1-1 1 .4 1 1-.4 1-1 1z"></path><path d="m21.5 4h-4.5v-3.5c0-.2-.1-.4-.3-.4-.2-.1-.4-.1-.5 0l-5.5 3.9h-6.2c-1.2 0-2.2.9-2.5 2-1.1.3-2 1.3-2 2.5v9c0 1.4 1.1 2.5 2.5 2.5h4.5v3.5c0 .2.1.4.3.4 0 .1.1.1.2.1s.2 0 .3-.1l5.5-3.9h6.2c1.2 0 2.2-.9 2.5-2 1.2-.2 2-1.2 2-2.5v-9c0-1.4-1.1-2.5-2.5-2.5zm-.5 13.5c0 .8-.7 1.5-1.5 1.5h-6.4c-.1 0-.2 0-.3.1l-4.8 3.4v-3c0-.3-.2-.5-.5-.5h-5c-.8 0-1.5-.7-1.5-1.5v-9c0-.8.7-1.5 1.5-1.5h17c.8 0 1.5.7 1.5 1.5zm2-2c0 .7-.4 1.2-1 1.4v-8.4c0-1.4-1.1-2.5-2.5-2.5h-16.4c.2-.6.8-1 1.4-1h6.4c.1 0 .2 0 .3-.1l4.8-3.4v3c0 .3.2.5.5.5h5c.8 0 1.5.7 1.5 1.5z"></path><circle cx="7.5" cy="8.5" r=".5"></circle><path d="m3 9.5c0-.3.2-.5.5-.5h2c.3 0 .5-.2.5-.5s-.2-.5-.5-.5h-2c-.8 0-1.5.7-1.5 1.5v1c0 .3.2.5.5.5s.5-.2.5-.5z"></path></g></g><g id="colored_line"><g><g><path d="m5 15c-1.1 0-2-.9-2-2s.9-2 2-2 2 .9 2 2-.9 2-2 2zm0-3c-.6 0-1 .4-1 1s.4 1 1 1 1-.4 1-1-.4-1-1-1z" fill="#3e5959"></path></g><g><path d="m11 15c-1.1 0-2-.9-2-2s.9-2 2-2 2 .9 2 2-.9 2-2 2zm0-3c-.6 0-1 .4-1 1s.4 1 1 1 1-.4 1-1-.4-1-1-1z" fill="#3e5959"></path></g><g><path d="m17 15c-1.1 0-2-.9-2-2s.9-2 2-2 2 .9 2 2-.9 2-2 2zm0-3c-.6 0-1 .4-1 1s.4 1 1 1 1-.4 1-1-.4-1-1-1z" fill="#3e5959"></path></g><path d="m21.5 4h-4.5v-3.5c0-.2-.1-.4-.3-.4-.2-.1-.4-.1-.5 0l-5.5 3.9h-6.2c-1.2 0-2.2.9-2.5 2-1.1.3-2 1.3-2 2.5v9c0 1.4 1.1 2.5 2.5 2.5h4.5v3.5c0 .2.1.4.3.4 0 .1.1.1.2.1s.2 0 .3-.1l5.5-3.9h6.2c1.2 0 2.2-.9 2.5-2 1.2-.2 2-1.2 2-2.5v-9c0-1.4-1.1-2.5-2.5-2.5zm-.5 13.5c0 .8-.7 1.5-1.5 1.5h-6.4c-.1 0-.2 0-.3.1l-4.8 3.4v-3c0-.3-.2-.5-.5-.5h-5c-.8 0-1.5-.7-1.5-1.5v-9c0-.8.7-1.5 1.5-1.5h17c.8 0 1.5.7 1.5 1.5zm2-2c0 .7-.4 1.2-1 1.4v-8.4c0-1.4-1.1-2.5-2.5-2.5h-16.4c.2-.6.8-1 1.4-1h6.4c.1 0 .2 0 .3-.1l4.8-3.4v3c0 .3.2.5.5.5h5c.8 0 1.5.7 1.5 1.5z" fill="#1689fc"></path><g><circle cx="7.5" cy="8.5" fill="#3e5959" r=".5"></circle></g><g><path d="m2.5 11c-.3 0-.5-.2-.5-.5v-1c0-.8.7-1.5 1.5-1.5h2c.3 0 .5.2.5.5s-.2.5-.5.5h-2c-.3 0-.5.2-.5.5v1c0 .3-.2.5-.5.5z" fill="#3e5959"></path></g></g></g><g id="filled_line" display="none"><g display="inline"><path d="m4.5 4.5h6.5l5.5-4v4h5c1.1 0 2 .9 2 2v9c0 1.1-.9 2-2 2h-17c-1.1 0-2-.9-2-2v-9c0-1.1.9-2 2-2z" fill="#1689fc"></path><path d="m19.5 19.5h-6.5l-5.5 4v-4h-5c-1.1 0-2-.9-2-2v-9c0-1.1.9-2 2-2h17c1.1 0 2 .9 2 2v9c0 1.1-.9 2-2 2z" fill="#b7e0f6"></path><g fill="#32d736"><circle cx="11" cy="13" r="1.5"></circle><circle cx="17" cy="13" r="1.5"></circle><circle cx="5" cy="13" r="1.5"></circle></g><path d="m19.5 19.5h-1.5c1.1 0 2-.9 2-2v-9c0-1.1-.9-2-2-2h1.5c1.1 0 2 .9 2 2v9c0 1.1-.9 2-2 2z" fill="#81c8ee"></path><g><g fill="#384949"><path d="m5 11c-1.1 0-2 .9-2 2s.9 2 2 2 2-.9 2-2-.9-2-2-2zm0 3c-.6 0-1-.4-1-1s.4-1 1-1 1 .4 1 1-.4 1-1 1z"></path><path d="m11 11c-1.1 0-2 .9-2 2s.9 2 2 2 2-.9 2-2-.9-2-2-2zm0 3c-.6 0-1-.4-1-1s.4-1 1-1 1 .4 1 1-.4 1-1 1z"></path><path d="m17 11c-1.1 0-2 .9-2 2s.9 2 2 2 2-.9 2-2-.9-2-2-2zm0 3c-.6 0-1-.4-1-1s.4-1 1-1 1 .4 1 1-.4 1-1 1z"></path><path d="m21.5 4h-4.5v-3.5c0-.2-.1-.4-.3-.4-.2-.1-.4-.1-.5 0l-5.5 3.9h-6.2c-1.2 0-2.2.9-2.5 2-1.1.3-2 1.3-2 2.5v9c0 1.4 1.1 2.5 2.5 2.5h4.5v3.5c0 .2.1.4.3.4 0 .1.1.1.2.1s.2 0 .3-.1l5.5-3.9h6.2c1.2 0 2.2-.9 2.5-2 1.2-.2 2-1.2 2-2.5v-9c0-1.4-1.1-2.5-2.5-2.5zm-.5 13.5c0 .8-.7 1.5-1.5 1.5h-6.4c-.1 0-.2 0-.3.1l-4.8 3.4v-3c0-.3-.2-.5-.5-.5h-5c-.8 0-1.5-.7-1.5-1.5v-9c0-.8.7-1.5 1.5-1.5h17c.8 0 1.5.7 1.5 1.5zm2-2c0 .7-.4 1.2-1 1.4v-8.4c0-1.4-1.1-2.5-2.5-2.5h-16.4c.2-.6.8-1 1.4-1h6.4c.1 0 .2 0 .3-.1l4.8-3.4v3c0 .3.2.5.5.5h5c.8 0 1.5.7 1.5 1.5z"></path></g><circle cx="7.5" cy="8.5" fill="#cae8f9" r=".5"></circle><path d="m3 9.5c0-.3.2-.5.5-.5h2c.3 0 .5-.2.5-.5s-.2-.5-.5-.5h-2c-.8 0-1.5.7-1.5 1.5v1c0 .3.2.5.5.5s.5-.2.5-.5z" fill="#cae8f9"></path></g></g></g><g id="duo_tone_1_" display="none"><g fill="#00ecce"><path d="m21.5 4.5h-5v-4l-5.5 4h-6.5c-1.1 0-2 .9-2 2h17c1.1 0 2 .9 2 2v9c1.1 0 2-.9 2-2v-9c0-1.1-.9-2-2-2z" display="inline"></path><circle cx="11" cy="13" display="inline" r="1.5"></circle><circle cx="17" cy="13" display="inline" r="1.5"></circle><circle cx="5" cy="13" display="inline" r="1.5"></circle></g><g display="inline" fill="#01a28e"><path d="m5 11c-1.1 0-2 .9-2 2s.9 2 2 2 2-.9 2-2-.9-2-2-2zm0 3c-.6 0-1-.4-1-1s.4-1 1-1 1 .4 1 1-.4 1-1 1z"></path><path d="m11 11c-1.1 0-2 .9-2 2s.9 2 2 2 2-.9 2-2-.9-2-2-2zm0 3c-.6 0-1-.4-1-1s.4-1 1-1 1 .4 1 1-.4 1-1 1z"></path><path d="m17 11c-1.1 0-2 .9-2 2s.9 2 2 2 2-.9 2-2-.9-2-2-2zm0 3c-.6 0-1-.4-1-1s.4-1 1-1 1 .4 1 1-.4 1-1 1z"></path><path d="m21.5 4h-4.5v-3.5c0-.2-.1-.4-.3-.4-.2-.1-.4-.1-.5 0l-5.5 3.9h-6.2c-1.2 0-2.2.9-2.5 2-1.1.3-2 1.3-2 2.5v9c0 1.4 1.1 2.5 2.5 2.5h4.5v3.5c0 .2.1.4.3.4 0 .1.1.1.2.1s.2 0 .3-.1l5.5-3.9h6.2c1.2 0 2.2-.9 2.5-2 1.2-.2 2-1.2 2-2.5v-9c0-1.4-1.1-2.5-2.5-2.5zm-.5 13.5c0 .8-.7 1.5-1.5 1.5h-6.4c-.1 0-.2 0-.3.1l-4.8 3.4v-3c0-.3-.2-.5-.5-.5h-5c-.8 0-1.5-.7-1.5-1.5v-9c0-.8.7-1.5 1.5-1.5h17c.8 0 1.5.7 1.5 1.5zm2-2c0 .7-.4 1.2-1 1.4v-8.4c0-1.4-1.1-2.5-2.5-2.5h-16.4c.2-.6.8-1 1.4-1h6.4c.1 0 .2 0 .3-.1l4.8-3.4v3c0 .3.2.5.5.5h5c.8 0 1.5.7 1.5 1.5z"></path><circle cx="7.5" cy="8.5" r=".5"></circle><path d="m3 9.5c0-.3.2-.5.5-.5h2c.3 0 .5-.2.5-.5s-.2-.5-.5-.5h-2c-.8 0-1.5.7-1.5 1.5v1c0 .3.2.5.5.5s.5-.2.5-.5z"></path></g></g><g id="flat" display="none"><g display="inline"><path d="m2 11v4.5c0 1.4 1.1 2.5 2.5 2.5h17c1.4 0 2.5-1.1 2.5-2.5v-4.5z" fill="#1689fc"></path><path d="m24 11v-4.5c0-1.4-1.1-2.5-2.5-2.5h-4.5v-3.5c0-.2-.1-.4-.3-.4 0-.1-.1-.1-.2-.1s-.2 0-.3.1l-5.5 3.9h-6.2c-1.4 0-2.5 1.1-2.5 2.5v4.5z" fill="#18a7fc"></path><path d="m22 13v-4.5c0-1.4-1.1-2.5-2.5-2.5h-17c-1.4 0-2.5 1.1-2.5 2.5v4.5z" fill="#cae8f9"></path><g fill="#32d736"><path d="m5 11c-1.1 0-2 .9-2 2h4c0-1.1-.9-2-2-2z"></path><path d="m11 11c-1.1 0-2 .9-2 2h4c0-1.1-.9-2-2-2z"></path><path d="m17 11c-1.1 0-2 .9-2 2h4c0-1.1-.9-2-2-2z"></path></g><path d="m0 13v4.5c0 1.4 1.1 2.5 2.5 2.5h4.5v3.5c0 .2.1.4.3.4 0 .1.1.1.2.1s.2 0 .3-.1l5.5-3.9h6.2c1.4 0 2.5-1.1 2.5-2.5v-4.5z" fill="#b7e0f6"></path><path d="m5 15c1.1 0 2-.9 2-2h-4c0 1.1.9 2 2 2z" fill="#10bb67"></path><path d="m11 15c1.1 0 2-.9 2-2h-4c0 1.1.9 2 2 2z" fill="#10bb67"></path><path d="m17 15c1.1 0 2-.9 2-2h-4c0 1.1.9 2 2 2z" fill="#10bb67"></path><circle cx="6.5" cy="7.5" fill="#b7e0f6" r=".5"></circle><g><path d="m1.5 10c-.3 0-.5-.2-.5-.5v-1c0-.8.7-1.5 1.5-1.5h2c.3 0 .5.2.5.5s-.2.5-.5.5h-2c-.3 0-.5.2-.5.5v1c0 .3-.2.5-.5.5z" fill="#b7e0f6"></path></g></g></g></svg>