<!-- icon666.com - MILLIONS vector ICONS FREE --><svg id="Layer_1" enable-background="new 0 0 1550 1550" viewBox="0 0 1550 1550" xmlns="http://www.w3.org/2000/svg"><g><g><g><g id="XMLID_1_"><path d="m1519 245.98v536.88c0 31.77-25.76 57.53-57.53 57.53h-57.53v247.23l-277.89-247.23h-132.81v-320.48c0-31.78-25.76-57.53-57.53-57.53h-378.95v-216.4c0-31.78 25.76-57.53 57.53-57.53h847.18c31.77 0 57.53 25.75 57.53 57.53z" fill="#eb5568"></path><path d="m993.24 840.39v216.41c0 31.77-25.76 57.53-57.53 57.53h-511.76l-277.9 247.22v-247.22h-57.52c-31.77 0-57.53-25.76-57.53-57.53v-536.89c0-31.78 25.76-57.53 57.53-57.53h468.23 378.95c31.77 0 57.53 25.75 57.53 57.53z" fill="#ffe25b"></path></g></g></g><g><g><g><path d="m146.05 1385.55c-3.32 0-6.67-.69-9.82-2.1-8.62-3.87-14.17-12.44-14.17-21.9v-223.22h-33.52c-44.96 0-81.53-36.57-81.53-81.53v-536.89c0-44.96 36.57-81.53 81.53-81.53h847.18c44.96 0 81.53 36.57 81.53 81.53v536.89c0 44.96-36.57 81.53-81.53 81.53h-502.64l-271.08 241.15c-4.48 3.99-10.18 6.07-15.95 6.07zm-57.52-899.17c-18.49 0-33.53 15.04-33.53 33.53v536.89c0 18.49 15.04 33.53 33.53 33.53h57.52c13.25 0 24 10.75 24 24v193.75l237.94-211.68c4.39-3.91 10.07-6.07 15.95-6.07h511.76c18.49 0 33.53-15.04 33.53-33.53v-536.89c0-18.49-15.04-33.53-33.53-33.53z"></path></g></g><g><g><path d="m1403.95 1111.62c-5.77 0-11.48-2.08-15.96-6.07l-271.07-241.16h-123.68c-13.25 0-24-10.75-24-24s10.74-24 24-24h132.82c5.88 0 11.56 2.16 15.95 6.07l237.94 211.69v-193.75c0-13.25 10.75-24 24-24h57.53c18.49 0 33.53-15.04 33.53-33.53v-536.89c0-18.49-15.04-33.53-33.53-33.53h-847.19c-18.49 0-33.53 15.04-33.53 33.53v216.4c0 13.25-10.75 24-24 24s-24-10.75-24-24v-216.4c0-44.96 36.57-81.53 81.53-81.53h847.18c44.96 0 81.53 36.57 81.53 81.53v536.88c0 44.96-36.57 81.53-81.53 81.53h-33.53v223.23c0 9.45-5.55 18.03-14.17 21.9-3.15 1.41-6.5 2.1-9.82 2.1z"></path></g></g></g></g></svg>