<?xml version="1.0" encoding="UTF-8"?>
<!DOCTYPE svg PUBLIC "-//W3C//DTD SVG 1.1//EN" "http://www.w3.org/Graphics/SVG/1.1/DTD/svg11.dtd">
<svg xmlns="http://www.w3.org/2000/svg" version="1.1" width="100px" height="100px" style="shape-rendering:geometricPrecision; text-rendering:geometricPrecision; image-rendering:optimizeQuality; fill-rule:evenodd; clip-rule:evenodd" xmlns:xlink="http://www.w3.org/1999/xlink">
<g><path style="opacity:0.897" fill="#379adf" d="M 86.5,0.5 C 90.0714,0.407657 91.2381,2.07432 90,5.5C 88.7533,8.32858 87.2533,10.9952 85.5,13.5C 83.9547,14.4519 82.288,14.7852 80.5,14.5C 81.9189,9.65375 83.9189,4.98708 86.5,0.5 Z"/></g>
<g><path style="opacity:0.866" fill="#399ddf" d="M 75.5,6.5 C 78.4841,6.78684 79.8174,8.45351 79.5,11.5C 77.8333,11.5 76.1667,11.5 74.5,11.5C 74.366,9.70848 74.6993,8.04181 75.5,6.5 Z"/></g>
<g><path style="opacity:0.861" fill="#399add" d="M 92.5,10.5 C 93.8333,10.5 95.1667,10.5 96.5,10.5C 95.5162,16.522 91.8495,19.522 85.5,19.5C 85.3433,18.1266 85.51,16.7932 86,15.5C 88.352,13.9697 90.5187,12.3031 92.5,10.5 Z"/></g>
<g><path style="opacity:0.977" fill="#fc2a23" d="M 42.5,13.5 C 53.2108,13.1884 63.8775,13.6884 74.5,15C 78.0662,15.6998 80.8995,17.5332 83,20.5C 85.1127,25.2837 86.4461,30.2837 87,35.5C 87.6667,47.1667 87.6667,58.8333 87,70.5C 86.4328,76.1397 83.9328,80.6397 79.5,84C 68.0935,85.9086 56.5935,86.7419 45,86.5C 38.5,86.3333 32,86.1667 25.5,86C 22.1498,85.7499 18.9831,84.9165 16,83.5C 15.1376,81.913 14.4709,80.2464 14,78.5C 10.8431,60.7928 10.8431,43.1261 14,25.5C 15.8917,21.9421 18.7251,19.4421 22.5,18C 29.2013,16.0297 35.868,14.5297 42.5,13.5 Z"/></g>
<g><path style="opacity:1" fill="#3a2120" d="M 31.5,20.5 C 32.675,20.281 33.675,20.6143 34.5,21.5C 29.299,23.0159 24.799,25.6826 21,29.5C 20.8078,31.5767 20.3078,33.5767 19.5,35.5C 18.2327,32.7608 18.3994,30.0942 20,27.5C 23.5136,24.4999 27.3469,22.1666 31.5,20.5 Z"/></g>
<g><path style="opacity:1" fill="#fff3f3" d="M 66.5,30.5 C 70.0003,30.4954 71.5003,32.1621 71,35.5C 64.8411,40.4929 59.0078,45.8262 53.5,51.5C 58.1515,56.6519 62.9849,61.6519 68,66.5C 70.6448,70.9356 69.4781,72.769 64.5,72C 59.3187,66.6516 53.9853,61.485 48.5,56.5C 41.6497,62.5167 35.3164,69.0167 29.5,76C 27.08,76.9149 25.7466,76.0815 25.5,73.5C 26.0909,71.7338 26.9242,70.0672 28,68.5C 32.9822,62.6836 38.1488,57.0169 43.5,51.5C 38.5414,47.0427 33.708,42.3761 29,37.5C 28.9783,34.5303 30.4783,33.3637 33.5,34C 38.3448,38.1799 43.1781,42.3466 48,46.5C 54.6429,41.6886 60.8095,36.3552 66.5,30.5 Z"/></g>
<g><path style="opacity:0.828" fill="#97ca3a" d="M 7.5,77.5 C 9.14387,77.2865 10.6439,77.6198 12,78.5C 12.899,83.0659 15.5656,86.0659 20,87.5C 20.6838,88.7839 20.5171,89.9505 19.5,91C 14.9197,91.4572 11.4197,89.6239 9,85.5C 7.74751,82.9865 7.24751,80.3198 7.5,77.5 Z"/></g>
<g><path style="opacity:1" fill="#412220" d="M 80.5,64.5 C 82.2872,71.4557 79.6206,76.9557 72.5,81C 71.0563,81.7805 69.723,81.6139 68.5,80.5C 75.8868,77.7335 79.8868,72.4002 80.5,64.5 Z"/></g>
<g><path style="opacity:0.817" fill="#9bcc3b" d="M 5.5,87.5 C 7.93629,87.7489 9.93629,88.7489 11.5,90.5C 9.55925,93.8103 6.89258,94.477 3.5,92.5C 3.36534,90.4458 4.03201,88.7791 5.5,87.5 Z"/></g>
</svg>
